<?xml version="1.0" encoding="utf-8"?>
<!-- Generator: Adobe Illustrator 26.0.1, SVG Export Plug-In . SVG Version: 6.00 Build 0)  -->
<svg version="1.1" id="Capa_1" xmlns="http://www.w3.org/2000/svg" xmlns:xlink="http://www.w3.org/1999/xlink" x="0px" y="0px"
	 viewBox="0 0 1000 1000" style="enable-background:new 0 0 1000 1000;" xml:space="preserve">
<style type="text/css">
	.st0{fill:none;}
	.st1{font-family:'Roboto-Regular';}
	.st2{font-size:18px;}
	.st3{fill:none;stroke:#1D1E1C;stroke-width:0.5;stroke-miterlimit:10;}
	.st4{fill:#1D1E1C;}
</style>
<image style="overflow:visible;enable-background:new    ;" width="2282" height="2229" xlink:href="LemurIlustraciónDigital.png"  transform="matrix(0.4433 0 0 0.4433 -5.8396 5.9086)">
</image>
<rect x="40" y="823" class="st0" width="90" height="36"/>
<text transform="matrix(1 0 0 1 40 834.25)" class="st1 st2">Glándulas </text>
<text transform="matrix(1 0 0 1 40 852.25)" class="st1 st2">Odorifaras</text>
<rect x="312" y="869" class="st0" width="62" height="36"/>
<text transform="matrix(1 0 0 1 312 880.25)" class="st1 st2">Garra de </text>
<text transform="matrix(1 0 0 1 312 898.25)" class="st1 st2">aseo</text>
<g>
	<g>
		<line class="st3" x1="116.9" y1="840" x2="145.2" y2="840"/>
		<g>
			<path class="st4" d="M145.1,841.9c1,0,1.9-0.8,1.9-1.9s-0.8-1.9-1.9-1.9c-1,0-1.9,0.8-1.9,1.9S144.1,841.9,145.1,841.9z"/>
		</g>
	</g>
</g>
<g>
	<g>
		<line class="st3" x1="349.9" y1="896" x2="388.3" y2="896"/>
		<g>
			<path class="st4" d="M388.2,897.9c1,0,1.9-0.8,1.9-1.9s-0.8-1.9-1.9-1.9c-1,0-1.9,0.8-1.9,1.9S387.2,897.9,388.2,897.9z"/>
		</g>
	</g>
</g>
</svg>
