<?xml version="1.0" encoding="utf-8"?>
<!-- Generator: Adobe Illustrator 26.0.1, SVG Export Plug-In . SVG Version: 6.00 Build 0)  -->
<svg version="1.1" id="Capa_1" xmlns="http://www.w3.org/2000/svg" xmlns:xlink="http://www.w3.org/1999/xlink" x="0px" y="0px"
	 viewBox="0 0 1000 1200" style="enable-background:new 0 0 1000 1200;" xml:space="preserve">
<style type="text/css">
	.st0{fill:none;}
	.st1{fill:#1D1D1B;}
	.st2{font-family:'Roboto-Regular';}
	.st3{font-size:20px;}
	.st4{fill:none;stroke:#1D1E1C;stroke-width:0.5;stroke-miterlimit:10;}
	.st5{fill:#1D1E1C;}
</style>
<g id="Capa_1_1_">
	
		<image style="overflow:visible;enable-background:new    ;" width="2282" height="2229" xlink:href="LemurIlustraciónDigital.png"  transform="matrix(0.4433 0 0 0.4433 -5.8396 5.9086)">
	</image>
</g>
<rect x="226.5" y="856.1" class="st0" width="90" height="36"/>
<text transform="matrix(1 0 0 1 226.5 867.3838)" class="st1 st2 st3">Glándulas </text>
<text transform="matrix(1 0 0 1 226.5 885.3838)" class="st1 st2 st3">Odorifaras</text>
<g>
	<g>
		<line class="st4" x1="220.5" y1="870.1" x2="192.2" y2="870.1"/>
		<g>
			<path class="st5" d="M192.3,868.3c-1,0-1.9,0.8-1.9,1.9s0.8,1.9,1.9,1.9c1,0,1.9-0.8,1.9-1.9S193.3,868.3,192.3,868.3z"/>
		</g>
	</g>
</g>
<rect x="318.9" y="856.1" class="st0" width="62" height="36"/>
<text transform="matrix(1 0 0 1 355.9453 942.3838)" class="st1 st2 st3">Garra de </text>
<text transform="matrix(1 0 0 1 355.9453 960.3838)" class="st1 st2 st3">aseo</text>
<g>
	<g>
		<line class="st4" x1="392.1" y1="929.2" x2="392.1" y2="904.2"/>
		<g>
			<path class="st5" d="M394.1,904.2c0-0.7-0.9-1.2-2-1.2c-1.2,0-2,0.5-2,1.2s0.9,1.2,2,1.2C393.2,905.5,394.1,905,394.1,904.2z"/>
		</g>
	</g>
</g>
</svg>
